<svg width="37" height="50" viewBox="0 0 37 50" fill="none" xmlns="http://www.w3.org/2000/svg">
<path d="M34.4838 44.9648C34.4838 46.7931 33.0001 48.2743 31.1742 48.2743H5.03275C3.20688 48.2743 1.72321 46.7931 1.72321 44.9648V5.03275C1.72321 3.20688 3.20688 1.72321 5.03275 1.72321H25.6355C26.1073 1.72321 26.5497 1.90653 26.8821 2.23895L33.9729 9.35911C34.3029 9.69153 34.4838 10.1339 34.4838 10.6008V44.9648ZM27.0459 33.7896V22.8637C27.0459 22.3871 26.6597 22.0009 26.183 22.0009C25.7064 22.0009 25.3226 22.3871 25.3226 22.8637V33.7896C25.3226 34.2638 25.7064 34.6524 26.183 34.6524C26.6597 34.6524 27.0459 34.2638 27.0459 33.7896ZM21.6367 34.6524C22.1133 34.6524 22.4995 34.2638 22.4995 33.7896V26.0535C22.4995 25.5769 22.1133 25.1931 21.6367 25.1931C21.1601 25.1931 20.7739 25.5769 20.7739 26.0535V33.7896C20.7739 34.2638 21.1601 34.6524 21.6367 34.6524ZM17.3225 34.6524C17.7992 34.6524 18.1854 34.2638 18.1854 33.7896V20.2483C18.1854 19.7717 17.7992 19.388 17.3225 19.388C16.8459 19.388 16.4597 19.7717 16.4597 20.2483V33.7896C16.4597 34.2638 16.8459 34.6524 17.3225 34.6524ZM12.852 34.6524C13.3286 34.6524 13.7148 34.2638 13.7148 33.7896V25.1149C13.7148 24.6382 13.3286 24.2545 12.852 24.2545C12.3778 24.2545 11.9891 24.6382 11.9891 25.1149V33.7896C11.9891 34.2638 12.3778 34.6524 12.852 34.6524ZM29.5268 37.544H8.72849V16.7457C8.72849 16.2691 8.33985 15.8829 7.86566 15.8829C7.38659 15.8829 7.00284 16.2691 7.00284 16.7457V38.4044C7.00284 38.881 7.38659 39.2672 7.86566 39.2672H29.5268C29.9985 39.2672 30.3872 38.881 30.3872 38.4044C30.3872 37.9277 29.9985 37.544 29.5268 37.544ZM32.0248 9.62309H26.6132V3.92794C26.6132 3.44887 26.2246 3.06512 25.7504 3.06512C25.2738 3.06512 24.89 3.44887 24.89 3.92794V10.4835C24.89 10.9601 25.2738 11.3463 25.7504 11.3463H32.0248C32.5015 11.3463 32.8877 10.9601 32.8877 10.4835C32.8877 10.0068 32.5015 9.62309 32.0248 9.62309ZM35.195 8.14431L28.1042 1.02171C27.4467 0.361752 26.5692 0 25.6355 0H5.03275C2.25851 0 0 2.25851 0 5.03275V44.9648C0 47.7415 2.25851 50 5.03275 50H31.1742C33.9509 50 36.207 47.7415 36.207 44.9648V10.6008C36.207 9.67687 35.8477 8.79937 35.195 8.14431Z" fill="#1C5BFE"/>
</svg>
