<svg width="164" height="77" viewBox="0 0 164 77" fill="none" xmlns="http://www.w3.org/2000/svg">
<path d="M59.7402 57.4355V1.68042H78.9807C82.6284 1.68042 85.7447 2.02723 88.3298 2.72085C90.6259 3.2796 92.788 4.28916 94.6904 5.69086C96.2925 6.90132 97.5493 8.5105 98.3356 10.358C99.1318 12.3156 99.5245 14.4138 99.4904 16.5268C99.4958 17.8023 99.3016 19.0708 98.9149 20.2863C98.5176 21.5004 97.9107 22.6354 97.1218 23.6401C96.2475 24.7394 95.2068 25.6955 94.0374 26.4736C92.6554 27.3875 91.1579 28.1133 89.5842 28.6319C97.2436 30.3536 101.073 34.4932 101.073 41.0506C101.096 43.3061 100.635 45.5403 99.7229 47.6031C98.8233 49.6087 97.4783 51.3829 95.7899 52.7905C93.9118 54.3342 91.7515 55.4983 89.4293 56.218C86.6335 57.0754 83.7199 57.4863 80.796 57.4355H59.7402ZM70.0965 25.8168H78.3867C81.9065 25.8168 84.5801 25.1749 86.4076 23.8909C88.2351 22.607 89.1477 20.5631 89.1452 17.7591C89.1452 14.8567 88.3224 12.7881 86.677 11.5534C85.0315 10.3187 82.4611 9.70376 78.966 9.70868H70.0965V25.8168ZM70.0965 32.9744V49.3224H80.6226C82.2637 49.3666 83.9004 49.132 85.4631 48.6287C86.6253 48.2481 87.6905 47.6186 88.5844 46.784C89.3576 46.0322 89.9395 45.1061 90.2816 44.0833C90.633 43.0271 90.8087 41.9203 90.8018 40.8071C90.8199 39.694 90.6232 38.5879 90.2225 37.5493C89.84 36.585 89.2162 35.7351 88.411 35.0811C87.4788 34.3439 86.4013 33.8121 85.2491 33.5204C83.73 33.1298 82.165 32.9461 80.5967 32.9744H70.0965Z" fill="white"/>
<path d="M119.582 0.13916V57.4364H110.06V0.13916H119.582Z" fill="white"/>
<path d="M139.052 17.8743V43.0142C139.052 45.432 139.612 47.3026 140.731 48.6259C141.85 49.9492 143.526 50.6108 145.76 50.6108C147.368 50.6164 148.955 50.2369 150.386 49.504C151.901 48.7174 153.281 47.695 154.474 46.4749V17.8743H164V57.4363H158.178C157.635 57.4753 157.094 57.3234 156.651 57.0069C156.207 56.6904 155.887 56.229 155.747 55.7023L155.094 52.5293C154.293 53.3323 153.442 54.0851 152.548 54.7836C151.681 55.4613 150.743 56.0439 149.752 56.5213C148.729 57.0053 147.656 57.3764 146.553 57.6282C145.343 57.9045 144.105 58.0394 142.863 58.0303C140.898 58.0654 138.948 57.6883 137.137 56.9235C135.522 56.2237 134.091 55.1606 132.954 53.8169C131.787 52.4195 130.915 50.8006 130.389 49.0575C129.791 47.0884 129.497 45.0391 129.519 42.981V17.8743H139.052Z" fill="white"/>
<path d="M53.5781 34.8416C53.5293 34.6797 53.4625 34.5238 53.3789 34.3767C53.3183 34.2708 53.2478 34.1708 53.1686 34.0779C53.1183 34.0155 53.0627 33.9575 53.0026 33.9045C52.9368 33.8438 52.8665 33.7883 52.7923 33.7385C52.448 33.5054 52.0326 33.4009 51.619 33.4433C51.3609 33.4705 51.1105 33.5469 50.8811 33.6684C50.6395 33.7978 50.4172 33.9605 50.2207 34.1517C50.0908 34.2766 49.9676 34.4084 49.8518 34.5465C49.4821 34.9911 49.142 35.4594 48.8335 35.9485C48.5457 36.4059 48.2764 36.8561 48.0218 37.3062C47.5164 38.2138 47.0552 39.1214 46.6346 40.0438C45.7897 41.8885 45.0887 43.7701 44.3988 45.6554C43.7088 47.5407 43.0632 49.4334 42.4655 51.3446C42.1261 52.4108 41.8051 53.4771 41.4952 54.5507C40.5113 54.7481 39.498 54.7481 38.5141 54.5507C37.7608 54.405 37.0498 54.0923 36.4332 53.6357C35.8959 53.2383 35.4971 52.682 35.2932 52.0456C35.09 51.3379 35.0534 50.5929 35.1862 49.8688C35.254 49.4596 35.3489 49.0553 35.4703 48.6586C35.6142 48.2159 35.7507 47.7695 35.913 47.3304C36.2229 46.445 36.5845 45.5706 36.9719 44.6666C37.3593 43.7627 37.7614 42.8219 38.1082 41.8073C38.4744 40.7835 38.7485 39.729 38.9273 38.6565C39.0917 37.5894 39.178 36.5116 39.1856 35.4319C39.1944 34.9779 39.0225 34.539 38.7076 34.2117C38.3928 33.8844 37.9609 33.6956 37.5069 33.6868C37.0528 33.678 36.6139 33.8499 36.2866 34.1647C35.9594 34.4796 35.7706 34.9115 35.7618 35.3655V35.3913C35.739 37.1905 35.4276 38.9743 34.8394 40.6746C34.238 42.3902 33.3636 44.2313 32.6995 46.2088C32.5298 46.6995 32.3822 47.205 32.2309 47.7067C32.0665 48.2614 31.9432 48.8274 31.862 49.4002C31.6825 50.6391 31.7962 51.9028 32.194 53.0897C32.6375 54.3412 33.4587 55.4242 34.5442 56.1888C35.5536 56.8872 36.7075 57.3487 37.9201 57.5392C38.8059 57.6899 39.7077 57.7234 40.6023 57.6388C40.1411 59.3913 39.7095 61.1585 39.3295 62.9368C38.8916 64.9168 38.5554 66.9179 38.3222 68.9322C38.2031 69.9624 38.1366 70.998 38.123 72.035C38.1161 72.5733 38.1383 73.1115 38.1894 73.6473C38.2433 74.229 38.3558 74.8038 38.5252 75.3629C38.6165 75.6603 38.8199 75.9105 39.0923 76.0607C39.3647 76.2109 39.6849 76.2494 39.9851 76.168C40.2853 76.0866 40.5422 75.8917 40.7014 75.6244C40.8606 75.3572 40.9098 75.0385 40.8384 74.7357V74.6951C40.6891 73.8426 40.6568 72.9737 40.7425 72.1125C40.8052 71.1865 40.9344 70.2456 41.1115 69.3011C41.4435 67.4121 41.8752 65.5158 42.3548 63.6268C42.8344 61.7378 43.3842 59.8598 43.9671 57.993C44.1221 57.4949 44.2844 56.9968 44.4394 56.5172C44.5316 56.4692 44.6201 56.4212 44.7087 56.3659C45.6684 55.7487 46.527 54.9871 47.2544 54.108C47.9369 53.2923 48.5608 52.4292 49.1213 51.5253C50.2061 49.7537 51.1015 47.8728 51.7924 45.9137C52.4984 43.9642 53.0329 41.9569 53.39 39.9146C53.5668 38.881 53.6789 37.8373 53.7257 36.7896V36.3912C53.7257 36.2473 53.7257 36.096 53.7257 35.9448C53.7257 35.5721 53.6761 35.2011 53.5781 34.8416ZM50.7336 35.8415C50.7263 35.8234 50.7201 35.8049 50.7151 35.7861C50.7151 35.7861 50.7262 35.8009 50.7336 35.8415ZM46.8523 50.1086C46.701 50.3447 46.5387 50.5772 46.3763 50.8059C46.8375 49.5072 47.3061 48.2233 47.8004 46.9209C48.4941 45.0762 49.2504 43.2942 49.9846 41.5048C50.1986 40.9919 50.4089 40.4791 50.6229 39.9737C50.1238 43.5874 48.8366 47.0474 46.8523 50.1086Z" fill="white"/>
<path d="M29.8592 55.8794H29.8223C29.6452 55.7949 29.488 55.674 29.3608 55.5246C29.2337 55.3752 29.1395 55.2007 29.0844 55.0124C28.9241 54.5164 28.8408 53.9988 28.8372 53.4776C28.8336 52.2907 28.9212 51.1054 29.0991 49.932C29.4201 47.5043 29.9477 45.0545 30.1359 42.435C30.1873 41.7599 30.1996 41.0824 30.1728 40.4058C30.1479 39.6549 30.0238 38.9105 29.8038 38.1921C29.6668 37.7707 29.4732 37.3698 29.2283 37.0004C28.9502 36.5836 28.592 36.226 28.1746 35.9486C27.7573 35.6712 27.289 35.4795 26.7969 35.3845C26.356 35.2892 25.9037 35.2582 25.454 35.2922C24.5715 35.3781 23.7268 35.6935 23.0042 36.2072C22.372 36.6565 21.8078 37.1945 21.3291 37.8047C20.9217 38.3263 20.5518 38.8762 20.2223 39.4502C20.2711 38.7132 20.2711 37.9737 20.2223 37.2366C20.1827 36.3625 19.9563 35.507 19.5582 34.7277C19.2898 34.2405 18.9214 33.8155 18.4772 33.4807C18.0612 33.1743 17.5939 32.9445 17.0973 32.8018C16.983 32.7649 16.8797 32.7428 16.769 32.717L16.5993 32.6912L16.4 32.658C16.1473 32.6196 15.8919 32.6023 15.6363 32.6063C15.1721 32.6205 14.7119 32.6962 14.2675 32.8314C13.4993 33.0701 12.7725 33.426 12.1129 33.8865C10.9488 34.7063 9.91089 35.692 9.03219 36.8123C8.44253 37.5554 7.89561 38.3314 7.39407 39.1366C7.11768 37.8524 6.6461 36.6181 5.99577 35.4767C5.22508 34.1286 4.13723 32.9889 2.82653 32.1562C2.41213 31.8959 1.91131 31.8109 1.43424 31.9199C0.957172 32.0288 0.542931 32.3229 0.282649 32.7373C0.022367 33.1517 -0.0626363 33.6525 0.0463391 34.1296C0.155314 34.6066 0.449342 35.0209 0.863738 35.2812C1.67379 35.7955 2.34624 36.4996 2.82284 37.3325C3.3371 38.2508 3.69495 39.2483 3.88171 40.2841C4.22119 42.2222 4.2796 44.1992 4.05512 46.154C3.46849 47.7589 2.96673 49.3859 2.53137 51.0241C2.19932 52.2637 1.90785 53.5108 1.6459 54.7652L1.4725 55.7023L1.42085 55.9679C1.39421 56.1193 1.37574 56.272 1.3655 56.4254C1.3655 56.4697 1.3655 56.5693 1.3655 56.6505C1.3655 56.7317 1.3655 56.7907 1.3655 56.8608C1.38788 57.0032 1.42498 57.1429 1.47619 57.2777C1.56529 57.515 1.70331 57.7309 1.88129 57.9114C2.05926 58.092 2.27321 58.233 2.50924 58.3255C2.76182 58.4254 3.03333 58.4682 3.30438 58.451C3.57543 58.4338 3.83934 58.3569 4.07725 58.2259C4.22405 58.1462 4.35934 58.0469 4.4794 57.9307C4.53269 57.8794 4.58318 57.8252 4.63067 57.7684C4.71439 57.6704 4.78968 57.5655 4.85573 57.4548C4.90369 57.3773 4.9369 57.3183 4.96641 57.2629C5.14648 56.9245 5.30663 56.5759 5.44604 56.2188C5.57517 55.8941 5.68955 55.5805 5.81499 55.2669C6.65685 52.783 7.2537 50.2226 7.597 47.6224C7.64127 47.2793 7.68185 46.9325 7.71506 46.5856C7.90691 46.0839 8.10245 45.5858 8.30906 45.1099C9.19357 42.9414 10.3609 40.8994 11.7808 39.037C12.4396 38.1828 13.2174 37.4274 14.0904 36.7938C14.4531 36.5324 14.8538 36.3284 15.2784 36.1888C15.4318 36.1407 15.5903 36.111 15.7507 36.1002C15.8047 36.0962 15.859 36.0962 15.913 36.1002H15.9425H16.0053C16.0476 36.1075 16.0895 36.1173 16.1307 36.1297C16.2377 36.1551 16.339 36.2001 16.4296 36.2626C16.4865 36.3044 16.5332 36.3586 16.5661 36.4212C16.7224 36.7696 16.8065 37.1462 16.8133 37.528C16.8618 38.6736 16.8162 39.8212 16.6767 40.9592C16.555 42.1731 16.4037 43.4053 16.2561 44.6487C16.1086 45.892 15.9536 47.1575 15.8466 48.4267C15.7396 49.6959 15.6511 50.9577 15.5884 52.2268C15.5588 52.8614 15.533 53.496 15.5183 54.138L15.4924 55.112C15.4924 55.4514 15.4924 55.7539 15.5146 56.1819L15.5367 56.3885V56.4697L15.5552 56.5767C15.5552 56.6431 15.5552 56.6505 15.6031 56.7649C15.7138 56.9419 15.5219 56.8682 16.0791 57.5027C16.9166 58.3735 19.086 57.4326 18.6617 57.1338C18.7224 57.034 18.7742 56.9291 18.8166 56.8202L18.8646 56.6763L18.8867 56.5951C18.9126 56.4881 18.9236 56.4291 18.9347 56.3701C18.979 56.145 18.9974 55.9679 19.0196 55.824L19.145 54.9128C19.2335 54.3077 19.3295 53.7026 19.4328 53.0975C19.632 51.8911 19.8681 50.692 20.1264 49.5003C20.6055 47.1498 21.2907 44.8461 22.174 42.6158C22.5793 41.5697 23.1135 40.5781 23.7642 39.6642C24.3914 38.8267 25.1145 38.277 25.7565 38.2217C25.9243 38.1995 26.0942 38.1995 26.262 38.2217C26.3914 38.237 26.5166 38.2771 26.6309 38.3397C26.8845 38.5181 27.0683 38.7788 27.1511 39.0776C27.3125 39.5546 27.4105 40.0508 27.4426 40.5534C27.4905 41.1239 27.5065 41.6967 27.4905 42.269C27.4167 44.6413 27.0736 47.1243 26.8892 49.6479C26.7655 50.9572 26.7655 52.2752 26.8892 53.5845C26.9599 54.3126 27.1454 55.0249 27.4389 55.6949C27.6193 56.0795 27.8695 56.4273 28.1768 56.7206C28.4983 57.0304 28.8873 57.2615 29.3131 57.3958C29.514 57.4532 29.7291 57.4331 29.9159 57.3395C30.1027 57.2459 30.2475 57.0856 30.3218 56.8903C30.396 56.695 30.3942 56.4789 30.3167 56.2849C30.2392 56.0909 30.0918 55.933 29.9034 55.8425L29.8592 55.8794Z" fill="white"/>
</svg>
