<svg width="100" height="100" viewBox="0 0 100 100" fill="none" xmlns="http://www.w3.org/2000/svg">
<g clip-path="url(#clip0_104_574)">
<path fill-rule="evenodd" clip-rule="evenodd" d="M49.9742 0L8.33398 25.6389V74.3578L19.1483 80.8321V32.1079L49.9829 13.055L80.8454 32.0804L80.9727 32.1549L80.9587 80.7598L91.6673 74.3578V25.6389L49.9742 0ZM55.4859 86.957L49.9742 90.3805L44.4582 86.9385V30.0385L30.175 38.9755V87.6889L49.9742 100L69.9406 87.6012V38.9448L55.4859 29.9946V86.957Z" fill="#F37B1F"/>
<g clip-path="url(#clip1_104_574)">
<path d="M239.868 182.176H280.228C291.708 182.176 298.975 175.856 298.975 165.709C298.975 156.149 291.708 149.256 280.228 149.256H239.868C238.535 149.256 237.375 150.403 237.375 151.549V179.883C237.575 181.216 238.522 182.176 239.868 182.176ZM239.868 247.456H281.575C294.388 247.456 302.042 240.949 302.042 229.456C302.042 219.509 294.775 211.456 281.575 211.456H239.868C238.535 211.456 237.375 212.616 237.375 213.763V244.963C237.575 246.496 238.522 247.456 239.868 247.456ZM387.535 0.709307L268.162 119.776H287.682C318.095 119.776 336.082 138.909 336.082 159.776C336.082 176.243 324.988 188.309 313.122 193.656C311.215 194.429 311.215 197.109 313.308 197.869C327.082 203.229 336.842 217.603 336.842 234.429C336.842 258.163 320.975 277.123 290.175 277.123H205.615C204.282 277.123 203.122 275.976 203.122 274.829V184.669L72.0949 315.203C70.3615 316.936 71.5215 319.989 74.0015 319.989H389.082C389.638 319.982 390.17 319.758 390.564 319.365C390.957 318.971 391.181 318.439 391.188 317.883V2.42931C391.762 0.322641 389.082 -0.824026 387.548 0.695974L387.535 0.709307Z" fill="black"/>
</g>
</g>
<defs>
<clipPath id="clip0_104_574">
<rect width="100" height="100" fill="white"/>
</clipPath>
<clipPath id="clip1_104_574">
<rect width="320" height="320" fill="white" transform="translate(71.2676)"/>
</clipPath>
</defs>
</svg>
