<svg width="100" height="100" viewBox="0 0 100 100" fill="none" xmlns="http://www.w3.org/2000/svg">
<g clip-path="url(#clip0_104_582)">
<path d="M52.6877 56.93H65.3002C68.8877 56.93 71.1585 54.955 71.1585 51.7842C71.1585 48.7967 68.8877 46.6425 65.3002 46.6425H52.6877C52.271 46.6425 51.9085 47.0008 51.9085 47.3592V56.2133C51.971 56.63 52.2669 56.93 52.6877 56.93ZM52.6877 77.33H65.721C69.7252 77.33 72.1169 75.2967 72.1169 71.705C72.1169 68.5967 69.846 66.08 65.721 66.08H52.6877C52.271 66.08 51.9085 66.4425 51.9085 66.8008V76.5508C51.971 77.03 52.2669 77.33 52.6877 77.33ZM98.8335 0.221659L61.5294 37.43H67.6294C77.1335 37.43 82.7544 43.4092 82.7544 49.93C82.7544 55.0758 79.2877 58.8467 75.5794 60.5175C74.9835 60.7592 74.9835 61.5967 75.6377 61.8342C79.9419 63.5092 82.9919 68.0008 82.9919 73.2592C82.9919 80.6758 78.0335 86.6008 68.4085 86.6008H41.9835C41.5669 86.6008 41.2044 86.2425 41.2044 85.8842V57.7092L0.25853 98.5008C-0.283136 99.0425 0.0793635 99.9967 0.854363 99.9967H99.3169C99.4908 99.9945 99.657 99.9245 99.78 99.8015C99.903 99.6785 99.973 99.5123 99.9752 99.3383V0.759159C100.154 0.100825 99.3169 -0.257508 98.8377 0.217492L98.8335 0.221659Z" fill="black"/>
</g>
<defs>
<clipPath id="clip0_104_582">
<rect width="100" height="100" fill="white"/>
</clipPath>
</defs>
</svg>
