<svg width="100" height="100" viewBox="0 0 100 100" fill="none" xmlns="http://www.w3.org/2000/svg">
<path d="M82.7999 19.6371C82.7312 19.1368 82.2932 18.8603 81.9312 18.8299C81.5699 18.7995 73.9232 18.2329 73.9232 18.2329C73.9232 18.2329 68.6126 12.9606 68.03 12.3772C67.4465 11.7938 66.3077 11.9712 65.8657 12.1015C65.8002 12.1206 64.7053 12.4587 62.8935 13.0189C61.1193 7.91448 57.9888 3.2232 52.4808 3.2232C52.3289 3.2232 52.1723 3.22959 52.0157 3.23838C50.4492 1.16686 48.5088 0.266968 46.8329 0.266968C34.0026 0.266968 27.8727 16.306 25.9507 24.457C20.9653 26.0019 17.4232 27.1 16.9709 27.2422C14.1881 28.115 14.1002 28.2029 13.7349 30.825C13.4592 32.8102 6.17773 89.1216 6.17773 89.1216L62.9167 99.7525L93.6602 93.1016C93.6602 93.1016 82.8678 20.1374 82.7999 19.6371ZM59.7575 13.9892C58.3325 14.4303 56.7125 14.9314 54.9567 15.4749C54.9583 15.1368 54.9599 14.8036 54.9599 14.4399C54.9599 11.2671 54.5195 8.71288 53.813 6.68771C56.651 7.04415 58.5411 10.2729 59.7575 13.9892ZM50.2926 7.31668C51.0814 9.29389 51.5945 12.131 51.5945 15.96C51.5945 16.1558 51.5929 16.3348 51.5913 16.5162C48.4688 17.4833 45.0762 18.5334 41.6756 19.5867C43.5849 12.2182 47.1637 8.65933 50.2926 7.31668ZM46.4804 3.70831C47.0343 3.70831 47.5921 3.89612 48.126 4.26375C44.0141 6.1986 39.6065 11.0721 37.7452 20.8039C35.0247 21.6463 32.3658 22.4694 29.9075 23.2311C32.0877 15.8081 37.2649 3.70831 46.4804 3.70831Z" fill="#95BF46"/>
<path d="M81.9312 18.8299C81.57 18.7995 73.9233 18.2329 73.9233 18.2329C73.9233 18.2329 68.6126 12.9606 68.03 12.3772C67.8118 12.1598 67.5177 12.0487 67.21 12.0007L62.9199 99.7517L93.6602 93.1016C93.6602 93.1016 82.8679 20.1374 82.7999 19.6371C82.7312 19.1368 82.2932 18.8602 81.9312 18.8299Z" fill="#5E8E3E"/>
<path d="M52.4814 35.8169L48.6908 47.0927C48.6908 47.0927 45.3693 45.3201 41.2982 45.3201C35.3298 45.3201 35.0293 49.066 35.0293 50.0098C35.0293 55.1598 48.4542 57.1331 48.4542 69.1961C48.4542 78.6866 42.4347 84.798 34.3181 84.798C24.5782 84.798 19.5977 78.7361 19.5977 78.7361L22.2054 70.12C22.2054 70.12 27.3251 74.5156 31.6455 74.5156C34.4683 74.5156 35.6168 72.293 35.6168 70.669C35.6168 63.951 24.603 63.6513 24.603 52.6128C24.603 43.3221 31.2715 34.3312 44.7324 34.3312C49.9192 34.3312 52.4814 35.8169 52.4814 35.8169Z" fill="white"/>
</svg>
