<svg width="100" height="100" viewBox="0 0 100 100" fill="none" xmlns="http://www.w3.org/2000/svg">
<path fill-rule="evenodd" clip-rule="evenodd" d="M90.6788 20.1172H9.28101C4.12976 20.1172 -0.0402911 24.3281 0.00029375 29.4385V60.5095C0.00029375 65.6606 4.17064 69.8307 9.3219 69.8307H47.8743L65.495 79.6426L61.4885 69.8307H90.6788C95.8301 69.8307 100 65.6606 100 60.5095V29.4385C100 24.2872 95.8301 20.1172 90.6788 20.1172ZM7.56411 27.3126C6.41938 27.3943 5.56082 27.8032 4.98847 28.5799C4.41612 29.3158 4.21171 30.2561 4.33435 31.3191C6.74644 46.6503 8.99499 56.9935 11.08 62.3492C11.8977 64.3115 12.838 65.252 13.9418 65.1702C15.6589 65.0474 17.703 62.6763 20.1151 58.0566C21.3825 55.4399 23.3449 51.5153 26.0023 46.2822C28.2098 54.009 31.2351 59.8145 35.0374 63.6983C36.1005 64.8021 37.2043 65.2927 38.267 65.211C39.2075 65.1292 39.9432 64.6386 40.4339 63.7391C40.8427 62.9624 41.0063 62.0629 40.9245 61.0409C40.6792 57.3206 41.0473 52.1285 42.0693 45.4646C43.1321 38.5962 44.4404 33.6494 46.0349 30.7058C46.3619 30.0926 46.4845 29.4793 46.4437 28.7435C46.3619 27.8031 45.9531 27.0264 45.1764 26.4131C44.3997 25.7999 43.5409 25.5137 42.6007 25.5955C41.4151 25.6772 40.5156 26.2496 39.9025 27.3943C37.3678 32.0141 35.5688 39.4957 34.506 49.8799C32.9524 45.9552 31.644 41.3354 30.622 35.8979C30.1724 33.4859 29.0686 32.3412 27.2696 32.4638C26.0431 32.5456 25.0211 33.3632 24.2034 34.9168L15.2501 51.9649C13.7783 46.0369 12.3883 38.8006 11.1209 30.2561C10.8347 28.1302 9.64911 27.149 7.56411 27.3126ZM86.3454 30.2562C89.2481 30.8695 91.415 32.4231 92.8866 34.9987C94.195 37.2064 94.8489 39.8637 94.8489 43.0526C94.8489 47.2634 93.7861 51.1065 91.66 54.6224C89.2071 58.7107 86.0183 60.7548 82.0527 60.7548C81.3578 60.7548 80.6218 60.673 79.8449 60.5095C76.9424 59.8963 74.7755 58.3429 73.3036 55.7672C71.9955 53.5186 71.3414 50.8204 71.3414 47.6723C71.3414 43.4614 72.4044 39.6184 74.5302 36.1434C77.0241 32.0551 80.213 30.011 84.1378 30.011C84.8327 30.011 85.5687 30.0927 86.3454 30.2562ZM84.6284 52.3738C86.1411 51.0247 87.1631 49.0214 87.7355 46.3232C87.899 45.3829 88.0216 44.3608 88.0216 43.2979C88.0216 42.1123 87.7762 40.8449 87.2856 39.5775C86.6725 37.9831 85.8547 37.1246 84.8735 36.9202C83.4018 36.634 81.9709 37.4516 80.6218 39.4549C79.518 41.0084 78.8229 42.6438 78.455 44.32C78.2505 45.2603 78.1687 46.2824 78.1687 47.3045C78.1687 48.49 78.414 49.7574 78.9046 51.0247C79.518 52.6191 80.3355 53.4776 81.3168 53.6822C82.3388 53.8865 83.4426 53.4368 84.6284 52.3738ZM67.253 34.9987C65.7811 32.4231 63.5735 30.8695 60.7118 30.2562C59.9348 30.0927 59.1991 30.011 58.5039 30.011C54.5794 30.011 51.3905 32.0551 48.8966 36.1434C46.7705 39.6184 45.7078 43.4614 45.7078 47.6723C45.7078 50.8204 46.3619 53.5186 47.67 55.7672C49.1419 58.3429 51.3088 59.8963 54.2113 60.5095C54.988 60.673 55.7239 60.7548 56.4191 60.7548C60.3847 60.7548 63.5735 58.7107 66.0264 54.6224C68.1525 51.1065 69.2153 47.2634 69.2153 43.0526C69.2153 39.8637 68.5611 37.2064 67.253 34.9987ZM62.1016 46.3232C61.5295 49.0214 60.5072 51.0247 58.9946 52.3738C57.809 53.4368 56.7052 53.8865 55.6832 53.6822C54.7019 53.4776 53.8842 52.6191 53.271 51.0247C52.7804 49.7574 52.5351 48.49 52.5351 47.3045C52.5351 46.2824 52.6169 45.2603 52.8214 44.32C53.1893 42.6438 53.8842 41.0084 54.988 39.4549C56.3373 37.4516 57.7682 36.634 59.2399 36.9202C60.2211 37.1246 61.0389 37.9831 61.652 39.5775C62.1427 40.8449 62.388 42.1123 62.388 43.2979C62.388 44.3608 62.3062 45.3829 62.1016 46.3232Z" fill="#7F54B3"/>
</svg>
